{"title":"You've Got Mail *1998*[HDTV][720p][ENG, POL]","uid":5945113,"size":4758223591,"categoryP":"video","categoryS":"hd___movies","magnet":"?xt=urn:btih:a8f48e07d445568be033f80d7933c3ece8f313e6&amp;dn=You%5C%27ve+Got+Mail+%2A1998%2A%5BHDTV%5D%5B720p%5D%5BENG%2C+POL%5D&amp;tr=udp%3A%2F%2Ftracker.openbittorrent.com%3A80&amp;tr=udp%3A%2F%2Fopen.demonii.com%3A1337&amp;tr=udp%3A%2F%2Ftracker.coppersurfer.tk%3A6969&amp;tr=udp%3A%2F%2Fexodus.desync.com%3A6969","seeders":1,"leechers":0,"uploader":"albedo040","files":1,"time":1289333881,"description":"You've Got Mail *1998*[HDTV][720p][ENG, POL]\n\nGeneral information:\nCountry: USA\nRelease: 18 December 1998\nGenre: Comedy, Romance \nDirector: Nora Ephron\nScreenplay: Nora Ephron, Delia Ephron, MiklÃƒÂ³s LÃƒÂ¡szlÃƒÂ³ (play &quot;Parfumerie&quot;) (as Nikolaus Laszlo) \nOriginal Music: SinÃƒÂ©ad O'Conno, George Fenton\nCinematography by: John Lindley\nDuration: 1h 59mn\nLanguage: English, Polish\nSubtitles: English, Polish\nRating: 7.1/10 - 24512 votes \n[img]http://img171.imageshack.us/img171/9500/20560127.jpg[/img]\n\n[img]http://img824.imageshack.us/img824/6642/beznazwy1wnc.jpg[/img]\n\nBest to watch program * Splash Pro* \nCast:\nTom Hanks  ...  Joe Fox  \nMeg Ryan  ...  Kathleen Kelly  \nGreg Kinnear  ...  Frank Navasky  \nParker Posey  ...  Patricia Eden  \nJean Stapleton  ...  Birdie Conrad  \nSteve Zahn  ...  George Pappas  \nHeather Burns  ...  Christina Plutzker  \nDave Chappelle  ...  Kevin Jackson  \nDabney Coleman  ...  Nelson Fox  \nJohn Randolph  ...  Schuyler Fox  \nHallee Hirsh  ...  Annabelle Fox  \nJeffrey Scaperrotta  ...  Matt Fox  \nCara Seymour  ...  Gillian Quinn  \nKatie Finneran  ...  Maureen, the Nanny  \nMichael Badalucco  ...  Charlie  \n\nPlot:\nTwo business rivals hate each other at the office but fall in love over the internet. \n\nSpecifications:\nGeneral\nFormat                           : Matroska\nOverall bit rate                 : 5 314 Kbps\n\nVideo\nFormat                           : AVC\nFormat/Info                      : Advanced Video Codec\nFormat profile                   : &lt;a class=&quot;__cf_email__&quot; href=&quot;/cdn-cgi/l/email-protection&quot; data-cfemail=&quot;fab2939d92bab6ced4cb&quot;&gt;[email&amp;#160;protected]&lt;/a&gt;&lt;script cf-hash='f9e31' type=&quot;text/javascript&quot;&gt;\n/* &lt;![CDATA[ */!function(){try{var t=&quot;currentScript&quot;in document?document.currentScript:function(){for(var t=document.getElementsByTagName(&quot;script&quot;),e=t.length;e--;)if(t[e].getAttribute(&quot;cf-hash&quot;))return t[e]}();if(t&amp;&amp;t.previousSibling){var e,r,n,i,c=t.previousSibling,a=c.getAttribute(&quot;data-cfemail&quot;);if(a){for(e=&quot;&quot;,r=parseInt(a.substr(0,2),16),n=2;a.length-n;n+=2)i=parseInt(a.substr(n,2),16)^r,e+=String.fromCharCode(i);e=document.createTextNode(e),c.parentNode.replaceChild(e,c)}}}catch(u){}}();/* ]]&gt; */&lt;/script&gt;\nFormat settings, CABAC           : Yes\nFormat settings, ReFrames        : 3 frames\nMuxing mode                      : Container profile=&lt;a class=&quot;__cf_email__&quot; href=&quot;/cdn-cgi/l/email-protection&quot; data-cfemail=&quot;e1b48f8a8f8e968fa1d5cfd0&quot;&gt;[email&amp;#160;protected]&lt;/a&gt;&lt;script cf-hash='f9e31' type=&quot;text/javascript&quot;&gt;\n/* &lt;![CDATA[ */!function(){try{var t=&quot;currentScript&quot;in document?document.currentScript:function(){for(var t=document.getElementsByTagName(&quot;script&quot;),e=t.length;e--;)if(t[e].getAttribute(&quot;cf-hash&quot;))return t[e]}();if(t&amp;&amp;t.previousSibling){var e,r,n,i,c=t.previousSibling,a=c.getAttribute(&quot;data-cfemail&quot;);if(a){for(e=&quot;&quot;,r=parseInt(a.substr(0,2),16),n=2;a.length-n;n+=2)i=parseInt(a.substr(n,2),16)^r,e+=String.fromCharCode(i);e=document.createTextNode(e),c.parentNode.replaceChild(e,c)}}}catch(u){}}();/* ]]&gt; */&lt;/script&gt;\nCodec ID                         : V_MPEG4/ISO/AVC\nBit rate                         : 4 697 Kbps\nNominal bit rate                 : 5 010 Kbps\nWidth                            : 1 280 pixels\nHeight                           : 720 pixels\nDisplay aspect ratio             : 16:9\nFrame rate                       : 23.976 fps\n\nAudio 1\nFormat                           : AC-3\nFormat/Info                      : Audio Coding 3\nMode extension                   : CM (complete main)\nCodec ID                         : A_AC3\nBit rate mode                    : Constant\nBit rate                         : 128 Kbps\nChannel(s)                       : 2 channels\nChannel positions                : Front: L R\nSampling rate                    : 48.0 KHz\nVideo delay                      : 8ms\nStream size                      : 109 MiB (2%)\nTitle                            : English\n\nAudio 2\nFormat                           : AC-3\nFormat/Info                      : Audio Coding 3\nMode extension                   : CM (complete main)\nCodec ID                         : A_AC3\nBit rate mode                    : Constant\nBit rate                         : 384 Kbps\nChannel(s)                       : 6 channels\nChannel positions                : Front: L C R, Side: L R, LFE\nSampling rate                    : 48.0 KHz\nStream size                      : 328 MiB (7%)\nTitle                            : Polish\nLanguage                         : Polish\n\nText 1\nFormat                           : UTF-8\nCodec ID                         : S_TEXT/UTF8\nCodec ID/Info                    : UTF-8 Plain Text\nTitle                            : English\n\nText 2\nFormat                           : UTF-8\nCodec ID                         : S_TEXT/UTF8\nCodec ID/Info                    : UTF-8 Plain Text\nTitle                            : Polish\nLanguage                         : Polish\n","torrent":{"xt":"urn:btih:a8f48e07d445568be033f80d7933c3ece8f313e6","amp;dn":"You%5C%27ve+Got+Mail+%2A1998%2A%5BHDTV%5D%5B720p%5D%5BENG%2C+POL%5D","amp;tr":["udp%3A%2F%2Ftracker.openbittorrent.com%3A80","udp%3A%2F%2Fopen.demonii.com%3A1337","udp%3A%2F%2Ftracker.coppersurfer.tk%3A6969","udp%3A%2F%2Fexodus.desync.com%3A6969"],"infoHash":"a8f48e07d445568be033f80d7933c3ece8f313e6","infoHashBuffer":{"type":"Buffer","data":[168,244,142,7,212,69,86,139,224,51,248,13,121,51,195,236,232,243,19,230]},"announce":[],"urlList":[]}}